<svg width="48" height="48" viewBox="0 0 48 48" fill="none" xmlns="http://www.w3.org/2000/svg">
<circle cx="24" cy="24" r="24" fill="#0049C6"/>
<path d="M36.904 26.7906V29.1196L33.2619 32.5232L24.0303 23.3738V16.7198L30.4677 13.9636V20.4116L36.904 26.7906Z" fill="#B3E5FC"/>
<path d="M33.2619 32.5232L28.4515 36.9863L17.5806 26.2122V13.9636L24.0302 16.7198V23.3738L33.2619 32.5232Z" fill="#4FC3F7"/>
<path d="M28.4473 36.9863L25.0776 40.1322C24.4862 40.6838 23.5638 40.6838 22.9724 40.1322L11.1431 29.1196V13.5222C11.1437 13.01 11.4042 12.5326 11.8362 12.2516C12.2682 11.9706 12.8138 11.9237 13.2882 12.1268L17.5805 13.9636V26.2122L28.4473 36.9863Z" fill="#2196F3"/>
<path d="M36.9037 13.5222V26.7906L30.4673 20.4116V13.9636L34.7585 12.1268C35.2329 11.9237 35.7785 11.9706 36.2105 12.2516C36.6425 12.5326 36.903 13.01 36.9037 13.5222Z" fill="#2196F3"/>
</svg>
