<svg width="11" height="10" viewBox="0 0 11 10" fill="none" xmlns="http://www.w3.org/2000/svg">
<path fill-rule="evenodd" clip-rule="evenodd" d="M5.71989 0.833336C6.82364 0.833336 7.88614 1.27084 8.66531 2.05417C9.44864 2.83792 9.88656 3.89584 9.88656 5.00417C9.88656 6.4625 9.11947 7.81667 7.86947 8.57084C6.61947 9.325 5.06531 9.36667 3.77406 8.67917H3.76114C3.68982 8.65055 3.62642 8.60963 3.56336 8.56894C3.51626 8.53855 3.46935 8.50828 3.41947 8.48334C3.29072 8.42917 3.14447 8.42084 3.01156 8.46292C2.70281 8.57084 2.39031 8.65834 2.06947 8.73334C1.90281 8.7375 1.85281 8.6375 1.85281 8.475C1.92781 8.14584 2.02781 7.82042 2.14489 7.50417C2.19031 7.36667 2.17822 7.22084 2.10739 7.09125L2.02406 6.92917C1.71531 6.34167 1.55322 5.6875 1.55322 5.02542V5C1.55322 3.89584 1.99031 2.83334 2.77364 2.05417C3.55697 1.27084 4.61531 0.833336 5.71989 0.833336ZM3.79864 5.5375C3.50281 5.5375 3.26531 5.29584 3.26531 5.00417C3.26531 4.70834 3.50281 4.47084 3.79864 4.47084C4.09031 4.47084 4.33239 4.70834 4.33239 5.00417C4.33239 5.29584 4.09031 5.5375 3.79864 5.5375ZM5.18614 5.00417C5.18614 5.29584 5.42406 5.5375 5.71989 5.5375C6.01572 5.5375 6.25281 5.29584 6.25281 5.00417C6.25281 4.70834 6.01572 4.47084 5.71989 4.47084C5.42406 4.47084 5.18614 4.70834 5.18614 5.00417ZM7.10739 5.00417C7.10739 5.29584 7.34864 5.5375 7.64031 5.5375C7.93614 5.5375 8.17364 5.29584 8.17364 5.00417C8.17364 4.70834 7.93614 4.47084 7.64031 4.47084C7.34864 4.47084 7.10739 4.70834 7.10739 5.00417Z" fill="white"/>
</svg>
