<svg width="23" height="24" viewBox="0 0 23 24" fill="none" xmlns="http://www.w3.org/2000/svg">
<path opacity="0.3" d="M11.2001 14.7158C7.6001 11.0158 7.0001 5.41582 9.6001 1.21582C7.6001 1.61582 5.7001 2.61582 4.2001 4.21582C-0.0999024 8.51582 -0.0999024 15.5158 4.2001 19.8158C8.5001 24.1158 15.5001 24.1158 19.8001 19.8158C20.4001 19.2158 21.0001 18.5158 21.4001 17.8158C17.8001 18.4158 14.0001 17.4158 11.2001 14.7158Z" stroke="white" stroke-width="2" stroke-miterlimit="10" stroke-linecap="round" stroke-linejoin="round"/>
<path opacity="0.3" d="M22 9.91577C20.6 8.51577 17.4 8.51577 16 9.91577C17.4 8.51577 17.4 5.31577 16 3.91577C17.4 5.31577 20.6 5.31577 22 3.91577C20.6 5.31577 20.6 8.51577 22 9.91577Z" stroke="white" stroke-width="2" stroke-miterlimit="10" stroke-linecap="round" stroke-linejoin="round"/>
</svg>
