<svg width="24" height="24" viewBox="0 0 24 24" fill="none" xmlns="http://www.w3.org/2000/svg">
<path opacity="0.4" d="M11.5002 11.4906V11.9906C11.7763 11.9906 12.0002 11.7667 12.0002 11.4906H11.5002ZM11.5002 12.4906H12.0002C12.0002 12.2144 11.7763 11.9906 11.5002 11.9906V12.4906ZM12.5002 12.4906V11.9906C12.224 11.9906 12.0002 12.2144 12.0002 12.4906H12.5002ZM12.5002 11.4906H12.0002C12.0002 11.7667 12.224 11.9906 12.5002 11.9906V11.4906ZM12.0002 8.32739H13.0002C13.0002 7.77511 12.5524 7.32739 12.0002 7.32739V8.32739ZM12.0002 8.32739V7.32739C11.4479 7.32739 11.0002 7.77511 11.0002 8.32739H12.0002ZM12.0002 11.4906V8.32739H11.0002V11.4906H12.0002ZM8.3335 11.9906H11.5002V10.9906H8.3335V11.9906ZM8.3335 11.9906V11.9906V10.9906C7.78121 10.9906 7.3335 11.4383 7.3335 11.9906H8.3335ZM8.3335 11.9906H7.3335C7.3335 12.5429 7.78121 12.9906 8.3335 12.9906V11.9906ZM11.5002 11.9906H8.3335V12.9906H11.5002V11.9906ZM12.0002 15.6537V12.4906H11.0002V15.6537H12.0002ZM12.0002 15.6537H11.0002C11.0002 16.206 11.4479 16.6537 12.0002 16.6537V15.6537ZM12.0002 15.6537V16.6537C12.5524 16.6537 13.0002 16.206 13.0002 15.6537H12.0002ZM12.0002 12.4906V15.6537H13.0002V12.4906H12.0002ZM15.6668 11.9906H12.5002V12.9906H15.6668V11.9906ZM15.6668 11.9906V12.9906C16.2191 12.9906 16.6668 12.5429 16.6668 11.9906H15.6668ZM15.6668 11.9906V11.9906H16.6668C16.6668 11.4383 16.2191 10.9906 15.6668 10.9906V11.9906ZM12.5002 11.9906H15.6668V10.9906H12.5002V11.9906ZM12.0002 8.32739V11.4906H13.0002V8.32739H12.0002Z" fill="white"/>
<path fill-rule="evenodd" clip-rule="evenodd" d="M16.6857 2H7.31429C4.04762 2 2 4.31208 2 7.58516V16.4148C2 19.6879 4.0381 22 7.31429 22H16.6857C19.9619 22 22 19.6879 22 16.4148V7.58516C22 4.31208 19.9619 2 16.6857 2Z" stroke="#808191" stroke-width="1.5" stroke-linecap="round" stroke-linejoin="round"/>
</svg>
