<svg width="24" height="24" viewBox="0 0 24 24" fill="none" xmlns="http://www.w3.org/2000/svg">
<path fill-rule="evenodd" clip-rule="evenodd" d="M20.3653 6.07125C19.3863 7.70183 20.2618 9.8155 22.1078 10.2773C22.9648 10.4912 23.3332 11.0508 23.3332 11.6897V12.3102C23.3332 12.9477 22.9677 13.5087 22.1078 13.7227C20.2618 14.1831 19.3863 16.2967 20.3653 17.9287C20.82 18.6881 20.6826 19.3426 20.2321 19.7931L19.7929 20.2322C19.341 20.6842 18.6865 20.8202 17.9286 20.3654C16.298 19.3865 14.1843 20.262 13.7225 22.1079C13.5072 22.9678 12.9476 23.3333 12.3101 23.3333H11.6896C11.0521 23.3333 10.4911 22.9678 10.2772 22.1079C9.81675 20.262 7.70309 19.3865 6.07109 20.3654C5.31459 20.8202 4.65867 20.6842 4.20675 20.2322L3.76759 19.7931C3.31567 19.3426 3.17825 18.6881 3.63442 17.9287C4.61334 16.2982 3.73784 14.1845 1.89192 13.7227C1.032 13.5073 0.666504 12.9477 0.666504 12.3102V11.6897C0.666504 11.0508 1.03484 10.4912 1.89192 10.2773C3.73784 9.81691 4.61334 7.70325 3.63442 6.07125C3.17825 5.31191 3.31567 4.656 3.76617 4.2055L4.20534 3.76633C4.65584 3.31583 5.31175 3.17841 6.07109 3.63458C7.70167 4.6135 9.81534 3.738 10.2772 1.89208C10.4925 1.03216 11.0521 0.666664 11.6896 0.666664H12.3101C12.9476 0.666664 13.5086 1.03216 13.7225 1.89208C14.1829 3.738 16.2966 4.6135 17.9286 3.63458C18.6879 3.17983 19.3424 3.31725 19.7929 3.76775L20.2321 4.20691C20.684 4.65741 20.8214 5.31191 20.3653 6.07125ZM7.74984 12C7.74984 14.3474 9.65242 16.25 11.9998 16.25C14.3473 16.25 16.2498 14.3474 16.2498 12C16.2498 9.65258 14.3473 7.75 11.9998 7.75C9.65242 7.75 7.74984 9.65258 7.74984 12Z" fill="white"/>
</svg>
