<svg width="17" height="17" viewBox="0 0 17 17" fill="none" xmlns="http://www.w3.org/2000/svg">
<path d="M9.93561 4.15942V11.1594H7.93561V4.15942H4.93561L8.93561 0.159424L12.9356 4.15942H9.93561Z" fill="white"/>
<path d="M15.9356 16.1594H1.93559C1.64859 16.1594 1.37559 16.0364 1.18559 15.8214C0.99559 15.6064 0.90759 15.3204 0.94259 15.0354L1.94259 7.03542C2.00559 6.53442 2.43159 6.15942 2.93559 6.15942H5.93559V8.15942H3.81859L3.06859 14.1594H14.8026L14.0526 8.15942H11.9356V6.15942H14.9356C15.4396 6.15942 15.8656 6.53442 15.9276 7.03542L16.9276 15.0354C16.9636 15.3204 16.8746 15.6064 16.6846 15.8214C16.4956 16.0364 16.2226 16.1594 15.9356 16.1594Z" fill="white"/>
</svg>
